:FULLY-SPECIFIED
:FORCE-ALL-JOINTS-BE-3DOF
:DEGREES
645
root 5.65643 16.0757 -1.12141 2.62552 20.5366 -9.9081
lfemur -24.153 23.4144 -20.6871
ltibia 67.1129 0 0
lfoot -9.25162 2.30023 0
ltoes 0.459619 0 0
rfemur -45.8528 -14.9403 25.4239
rtibia 61.1628 0 0
rfoot -13.2305 -0.574476 0
rtoes -7.86758 0 0
lowerback 0.775168 -4.68217 -2.65425
upperback -0.693531 -6.31291 1.29876
thorax -0.87715 -3.1645 2.85428
lowerneck -8.58055 -7.37106 -1.07236
upperneck 5.76972 -10.2093 4.12663
head 3.60961 -4.86002 0.795431
lclavicle 1.82321e-14 -5.90238e-15 0
lhumerus -11.5792 -55.5906 84.786
lradius 74.5032 0 0
lwrist 26.8078 0 0
lhand -14.2382 -0.964136 0
lfingers 7.12502 0 0
lthumb 11.8983 28.6537 0
rclavicle 1.82321e-14 -5.90238e-15 0
rhumerus -24.0631 -2.65439 -58.8734
rradius 90.0803 0 0
rwrist -29.7036 0 0
rhand -27.553 -38.4408 0
rfingers 7.12502 0 0
rthumb -0.954129 -788.419 0
646
root 5.64759 16.0693 -1.07591 3.14051 19.2723 -9.52922
lfemur -24.2814 23.5778 -20.7182
ltibia 67.5565 0 0
lfoot -8.80621 2.08469 0
ltoes 0.47243 0 0
rfemur -45.8867 -15.0255 25.5832
rtibia 61.3795 0 0
rfoot -13.6074 -0.829541 0
rtoes -7.50505 0 0
lowerback 0.714531 -4.74713 -2.58069
upperback -0.741722 -6.39723 1.29083
thorax -0.893356 -3.20605 2.80357
lowerneck -8.63994 -7.26379 -1.02094
upperneck 5.6201 -10.059 4.07213
head 3.56428 -4.79032 0.783387
lclavicle 1.81276e-14 -5.93296e-15 0
lhumerus -11.3465 -56.1291 84.7723
lradius 74.9209 0 0
lwrist 26.8473 0 0
lhand -14.1538 -0.934976 0
lfingers 7.12502 0 0
lthumb 11.9797 28.6786 0
rclavicle 1.81276e-14 -5.93296e-15 0
rhumerus -25.0229 -3.01558 -58.5834
rradius 89.2262 0 0
rwrist -29.3615 0 0
rhand -27.5517 -38.7948 0
rfingers 7.12502 0 0
rthumb -0.952919 -788.773 0
647
root 5.63876 16.0628 -1.0304 3.6555 18.008 -9.15033
lfemur -24.4098 23.7412 -20.7493
ltibia 68.0002 0 0
lfoot -8.36081 1.86915 0
ltoes 0.485242 0 0
rfemur -45.9206 -15.1107 25.7425
rtibia 61.5961 0 0
rfoot -13.9843 -1.08461 0
rtoes -7.14252 0 0
lowerback 0.653895 -4.81208 -2.50713
upperback -0.789913 -6.48154 1.28289
thorax -0.909561 -3.24759 2.75285
lowerneck -8.69933 -7.15652 -0.969519
upperneck 5.47048 -9.90873 4.01763
head 3.51895 -4.72062 0.771343
lclavicle 1.80231e-14 -5.96354e-15 0
lhumerus -11.1137 -56.6676 84.7587
lradius 75.3386 0 0
lwrist 26.8867 0 0
lhand -14.0694 -0.905817 0
lfingers 7.12502 0 0
lthumb 12.061 28.7034 0
rclavicle 1.80231e-14 -5.96354e-15 0
rhumerus -25.9828 -3.37677 -58.2934
rradius 88.3721 0 0
rwrist -29.0194 0 0
rhand -27.5505 -39.1487 0
rfingers 7.12502 0 0
rthumb -0.951709 -789.127 0
648
root 5.62993 16.0564 -0.984894 4.17049 16.7437 -8.77144
lfemur -24.5381 23.9047 -20.7803
ltibia 68.4438 0 0
lfoot -7.91541 1.65361 0
ltoes 0.498053 0 0
rfemur -45.9545 -15.1959 25.9018
rtibia 61.8127 0 0
rfoot -14.3612 -1.33967 0
rtoes -6.77999 0 0
lowerback 0.593258 -4.87703 -2.43357
upperback -0.838105 -6.56585 1.27495
thorax -0.925766 -3.28914 2.70214
lowerneck -8.75871 -7.04925 -0.918096
upperneck 5.32086 -9.75845 3.96313
head 3.47361 -4.65092 0.759298
lclavicle 1.79186e-14 -5.99412e-15 0
lhumerus -10.8809 -57.2062 84.7451
lradius 75.7563 0 0
lwrist 26.9261 0 0
lhand -13.985 -0.876657 0
lfingers 7.12502 0 0
lthumb 12.1424 28.7282 0
rclavicle 1.79186e-14 -5.99412e-15 0
rhumerus -26.9426 -3.73796 -58.0034
rradius 87.518 0 0
rwrist -28.6773 0 0
rhand -27.5492 -39.5027 0
rfingers 7.12502 0 0
rthumb -0.950499 -789.481 0
649
root 5.62109 16.05 -0.939388 4.68548 15.4793 -8.39255
lfemur -24.6665 24.0681 -20.8114
ltibia 68.8874 0 0
lfoot -7.47001 1.43807 0
ltoes 0.510864 0 0
rfemur -45.9884 -15.2812 26.0611
rtibia 62.0294 0 0
rfoot -14.7381 -1.59474 0
rtoes -6.41746 0 0
lowerback 0.532621 -4.94199 -2.36001
upperback -0.886296 -6.65017 1.26701
thorax -0.941972 -3.33069 2.65143
lowerneck -8.8181 -6.94198 -0.866673
upperneck 5.17124 -9.60818 3.90863
head 3.42828 -4.58122 0.747254
lclavicle 1.78142e-14 -6.0247e-15 0
lhumerus -10.6481 -57.7447 84.7314
lradius 76.174 0 0
lwrist 26.9656 0 0
lhand -13.9006 -0.847497 0
lfingers 7.12502 0 0
lthumb 12.2238 28.753 0
rclavicle 1.78142e-14 -6.0247e-15 0
rhumerus -27.9024 -4.09915 -57.7135
rradius 86.6639 0 0
rwrist -28.3352 0 0
rhand -27.548 -39.8567 0
rfingers 7.12502 0 0
rthumb -0.949289 -789.835 0
650
root 5.61226 16.0435 -0.893883 5.20048 14.215 -8.01366
lfemur -24.7949 24.2315 -20.8425
ltibia 69.3311 0 0
lfoot -7.02461 1.22253 0
ltoes 0.523675 0 0
rfemur -46.0223 -15.3664 26.2204
rtibia 62.246 0 0
rfoot -15.115 -1.8498 0
rtoes -6.05493 0 0
lowerback 0.471985 -5.00694 -2.28645
upperback -0.934488 -6.73448 1.25907
thorax -0.958177 -3.37224 2.60071
lowerneck -8.87749 -6.83471 -0.815251
upperneck 5.02162 -9.4579 3.85413
head 3.38295 -4.51153 0.73521
lclavicle 1.77097e-14 -6.05529e-15 0
lhumerus -10.4153 -58.2832 84.7178
lradius 76.5917 0 0
lwrist 27.005 0 0
lhand -13.8162 -0.818338 0
lfingers 7.12502 0 0
lthumb 12.3052 28.7778 0
rclavicle 1.77097e-14 -6.05529e-15 0
rhumerus -28.8623 -4.46034 -57.4235
rradius 85.8099 0 0
rwrist -27.9931 0 0
rhand -27.5467 -40.2106 0
rfingers 7.12502 0 0
rthumb -0.948079 -790.189 0
651
root 5.60342 16.0371 -0.848377 5.71547 12.9507 -7.63478
lfemur -24.9232 24.3949 -20.8735
ltibia 69.7747 0 0
lfoot -6.57921 1.00699 0
ltoes 0.536487 0 0
rfemur -46.0562 -15.4516 26.3797
rtibia 62.4626 0 0
rfoot -15.4919 -2.10487 0
rtoes -5.6924 0 0
lowerback 0.411348 -5.07189 -2.21289
upperback -0.982679 -6.8188 1.25113
thorax -0.974382 -3.41379 2.55
lowerneck -8.93688 -6.72744 -0.763828
upperneck 4.872 -9.30763 3.79963
head 3.33762 -4.44183 0.723165
lclavicle 1.76052e-14 -6.08587e-15 0
lhumerus -10.1825 -58.8217 84.7042
lradius 77.0094 0 0
lwrist 27.0445 0 0
lhand -13.7318 -0.789178 0
lfingers 7.12502 0 0
lthumb 12.3866 28.8026 0
rclavicle 1.76052e-14 -6.08587e-15 0
rhumerus -29.8221 -4.82153 -57.1335
rradius 84.9558 0 0
rwrist -27.651 0 0
rhand -27.5455 -40.5646 0
rfingers 7.12502 0 0
rthumb -0.946869 -790.543 0
652
root 5.59459 16.0307 -0.802871 6.23046 11.6864 -7.25589
lfemur -25.0516 24.5583 -20.9046
ltibia 70.2183 0 0
lfoot -6.13381 0.791449 0
ltoes 0.549298 0 0
rfemur -46.0901 -15.5368 26.539
rtibia 62.6793 0 0
rfoot -15.8687 -2.35993 0
rtoes -5.32987 0 0
lowerback 0.350711 -5.13685 -2.13933
upperback -1.03087 -6.90311 1.24319
thorax -0.990588 -3.45533 2.49929
lowerneck -8.99626 -6.62018 -0.712405
upperneck 4.72238 -9.15735 3.74513
head 3.29229 -4.37213 0.711121
lclavicle 1.75007e-14 -6.11645e-15 0
lhumerus -9.94976 -59.3602 84.6905
lradius 77.427 0 0
lwrist 27.0839 0 0
lhand -13.6475 -0.760018 0
lfingers 7.12502 0 0
lthumb 12.468 28.8275 0
rclavicle 1.75007e-14 -6.11645e-15 0
rhumerus -30.7819 -5.18272 -56.8435
rradius 84.1017 0 0
rwrist -27.3089 0 0
rhand -27.5442 -40.9186 0
rfingers 7.12502 0 0
rthumb -0.945659 -790.897 0
653
root 5.58576 16.0242 -0.757365 6.74545 10.4221 -6.877
lfemur -25.1799 24.7217 -20.9357
ltibia 70.662 0 0
lfoot -5.6884 0.57591 0
ltoes 0.562109 0 0
rfemur -46.124 -15.622 26.6983
rtibia 62.8959 0 0
rfoot -16.2456 -2.615 0
rtoes -4.96734 0 0
lowerback 0.290075 -5.2018 -2.06577
upperback -1.07906 -6.98742 1.23525
thorax -1.00679 -3.49688 2.44858
lowerneck -9.05565 -6.51291 -0.660982
upperneck 4.57276 -9.00708 3.69063
head 3.24696 -4.30243 0.699076
lclavicle 1.73962e-14 -6.14703e-15 0
lhumerus -9.71697 -59.8988 84.6769
lradius 77.8447 0 0
lwrist 27.1234 0 0
lhand -13.5631 -0.730859 0
lfingers 7.12502 0 0
lthumb 12.5494 28.8523 0
rclavicle 1.73962e-14 -6.14703e-15 0
rhumerus -31.7418 -5.54391 -56.5535
rradius 83.2476 0 0
rwrist -26.9668 0 0
rhand -27.543 -41.2726 0
rfingers 7.12502 0 0
rthumb -0.944449 -791.251 0
654
root 5.57692 16.0178 -0.71186 7.26045 9.15779 -6.49811
lfemur -25.3083 24.8852 -20.9667
ltibia 71.1056 0 0
lfoot -5.243 0.36037 0
ltoes 0.57492 0 0
rfemur -46.1579 -15.7072 26.8576
rtibia 63.1125 0 0
rfoot -16.6225 -2.87007 0
rtoes -4.60481 0 0
lowerback 0.229438 -5.26675 -1.99221
upperback -1.12725 -7.07174 1.22731
thorax -1.023 -3.53843 2.39786
lowerneck -9.11504 -6.40564 -0.60956
upperneck 4.42314 -8.85681 3.63613
head 3.20162 -4.23274 0.687032
lclavicle 1.72917e-14 -6.17762e-15 0
lhumerus -9.48419 -60.4373 84.6633
lradius 78.2624 0 0
lwrist 27.1628 0 0
lhand -13.4787 -0.701699 0
lfingers 7.12502 0 0
lthumb 12.6308 28.8771 0
rclavicle 1.72917e-14 -6.17762e-15 0
rhumerus -32.7016 -5.90509 -56.2635
rradius 82.3935 0 0
rwrist -26.6247 0 0
rhand -27.5417 -41.6265 0
rfingers 7.12502 0 0
rthumb -0.943239 -791.604 0
655
root 5.56809 16.0114 -0.666354 7.77544 7.89348 -6.11922
lfemur -25.4367 25.0486 -20.9978
ltibia 71.5493 0 0
lfoot -4.7976 0.144831 0
ltoes 0.587732 0 0
rfemur -46.1918 -15.7924 27.0169
rtibia 63.3292 0 0
rfoot -16.9994 -3.12513 0
rtoes -4.24228 0 0
lowerback 0.168802 -5.3317 -1.91865
upperback -1.17544 -7.15605 1.21937
thorax -1.0392 -3.57998 2.34715
lowerneck -9.17443 -6.29837 -0.558137
upperneck 4.27352 -8.70653 3.58163
head 3.15629 -4.16304 0.674988
lclavicle 1.71872e-14 -6.2082e-15 0
lhumerus -9.25141 -60.9758 84.6497
lradius 78.6801 0 0
lwrist 27.2023 0 0
lhand -13.3943 -0.672539 0
lfingers 7.12502 0 0
lthumb 12.7122 28.9019 0
rclavicle 1.71872e-14 -6.2082e-15 0
rhumerus -33.6615 -6.26628 -55.9735
rradius 81.5394 0 0
rwrist -26.2826 0 0
rhand -27.5404 -41.9805 0
rfingers 7.12502 0 0
rthumb -0.942029 -791.958 0
656
root 5.55926 16.0049 -0.620848 8.29043 6.62917 -5.74034
lfemur -25.565 25.212 -21.0289
ltibia 71.9929 0 0
lfoot -4.3522 -0.0707087 0
ltoes 0.600543 0 0
rfemur -46.2257 -15.8776 27.1762
rtibia 63.5458 0 0
rfoot -17.3763 -3.3802 0
rtoes -3.87975 0 0
lowerback 0.108165 -5.39666 -1.84509
upperback -1.22364 -7.24036 1.21143
thorax -1.05541 -3.62152 2.29644
lowerneck -9.23381 -6.1911 -0.506714
upperneck 4.1239 -8.55626 3.52713
head 3.11096 -4.09334 0.662943
lclavicle 1.70827e-14 -6.23878e-15 0
lhumerus -9.01862 -61.5143 84.636
lradius 79.0978 0 0
lwrist 27.2417 0 0
lhand -13.3099 -0.64338 0
lfingers 7.12502 0 0
lthumb 12.7936 28.9267 0
rclavicle 1.70827e-14 -6.23878e-15 0
rhumerus -34.6213 -6.62747 -55.6836
rradius 80.6853 0 0
rwrist -25.9405 0 0
rhand -27.5392 -42.3345 0
rfingers 7.12502 0 0
rthumb -0.940819 -792.312 0
657
root 5.55042 15.9985 -0.575342 8.80542 5.36486 -5.36145
lfemur -25.6934 25.3754 -21.0599
ltibia 72.4365 0 0
lfoot -3.9068 -0.286248 0
ltoes 0.613354 0 0
rfemur -46.2596 -15.9628 27.3355
rtibia 63.7624 0 0
rfoot -17.7532 -3.63526 0
rtoes -3.51722 0 0
lowerback 0.0475283 -5.46161 -1.77153
upperback -1.27183 -7.32468 1.2035
thorax -1.07161 -3.66307 2.24573
lowerneck -9.2932 -6.08383 -0.455291
upperneck 3.97428 -8.40598 3.47263
head 3.06563 -4.02364 0.650899
lclavicle 1.69782e-14 -6.26936e-15 0
lhumerus -8.78584 -62.0529 84.6224
lradius 79.5155 0 0
lwrist 27.2812 0 0
lhand -13.2255 -0.61422 0
lfingers 7.12502 0 0
lthumb 12.8749 28.9515 0
rclavicle 1.69782e-14 -6.26936e-15 0
rhumerus -35.5811 -6.98866 -55.3936
rradius 79.8312 0 0
rwrist -25.5984 0 0
rhand -27.5379 -42.6885 0
rfingers 7.12502 0 0
rthumb -0.939609 -792.666 0
